<svg width="492" height="90" viewBox="0 0 492 90" fill="none" xmlns="http://www.w3.org/2000/svg">
<path d="M34.056 17.04C39.048 17.04 41.544 19.504 41.544 24.432V59.472H47.688V66H29.16V59.472H33.768V23.76L14.664 35.76V59.472H19.368V66H0.84V59.472H6.888V24.432H0.84V18H14.664V27.984L30.6 18C31.624 17.36 32.776 17.04 34.056 17.04ZM64.3305 66C61.0665 66 58.7625 65.264 57.4185 63.792C56.0745 62.256 55.4025 60.144 55.4025 57.456V26.544C55.4025 23.984 55.9785 21.936 57.1305 20.4C58.3465 18.8 60.7465 18 64.3305 18H82.0905C85.6105 18 87.9785 18.8 89.1945 20.4C90.4105 21.936 91.0185 23.984 91.0185 26.544V57.456C91.0185 60.144 90.3465 62.256 89.0025 63.792C87.6585 65.264 85.3545 66 82.0905 66H64.3305ZM63.1785 59.472H83.2425V24.528H63.1785V59.472ZM96.795 18H112.059V24.528H107.835L115.611 59.376L124.539 18H135.099L144.315 59.568L152.187 24.528H147.867V18H163.227V24.528H158.619L149.499 66H139.227L130.107 24.432L120.795 66H110.043C110.043 66 109.819 64.976 109.371 62.928C108.923 60.816 108.347 58.224 107.643 55.152C107.003 52.08 106.299 48.752 105.531 45.168C104.763 41.584 104.027 38.256 103.323 35.184C102.683 32.112 102.107 29.584 101.595 27.6L100.923 24.528H96.795V18ZM231.678 18C236.67 18 239.166 20.464 239.166 25.392V33.936H231.39V24.624L216.414 34.128V59.472H221.118V66H202.59V59.472H208.638V24.432H202.59V17.904H216.414V26.352L228.222 18.96C229.246 18.32 230.398 18 231.678 18ZM247.8 27.408C247.8 21.072 251.096 17.904 257.688 17.904H273.912C277.048 17.904 279.32 18.512 280.728 19.728C282.136 20.944 282.84 23.184 282.84 26.448V35.376L255.48 52.656V59.472H275.256V53.904H282.84V58.992C282.84 60.912 282.232 62.576 281.016 63.984C279.864 65.328 277.912 66 275.16 66H255.48C252.728 66 250.744 65.328 249.528 63.984C248.376 62.576 247.8 60.912 247.8 58.992V27.408ZM255.48 44.88L275.16 32.496V24.528H255.48V44.88ZM305.385 59.472H325.737V23.856L305.385 36.624V59.472ZM291.561 83.472H297.513V24.624H291.465V18H305.385V28.944L321.993 18.48C323.529 17.52 325.161 17.04 326.889 17.04C328.617 17.04 330.121 17.584 331.401 18.672C332.745 19.696 333.417 21.232 333.417 23.28V56.976C333.417 59.92 333.001 61.936 332.169 63.024C330.569 65.008 328.105 66 324.777 66H305.385V83.472H311.721V90H291.561V83.472ZM351.018 66C347.754 66 345.45 65.264 344.106 63.792C342.762 62.256 342.09 60.144 342.09 57.456V26.544C342.09 23.984 342.666 21.936 343.818 20.4C345.034 18.8 347.434 18 351.018 18H368.778C372.298 18 374.666 18.8 375.882 20.4C377.098 21.936 377.706 23.984 377.706 26.544V57.456C377.706 60.144 377.034 62.256 375.69 63.792C374.346 65.264 372.042 66 368.778 66H351.018ZM349.866 59.472H369.93V24.528H349.866V59.472ZM414.491 18C419.483 18 421.979 20.464 421.979 25.392V33.936H414.203V24.624L399.227 34.128V59.472H403.931V66H385.403V59.472H391.451V24.432H385.403V17.904H399.227V26.352L411.035 18.96C412.059 18.32 413.211 18 414.491 18ZM441.995 0.527996V18H449.771V24.912H441.995V59.472H451.115V66H443.051C440.171 66 438.027 65.264 436.619 63.792C435.211 62.256 434.507 59.664 434.507 56.016V24.912H427.403V18H434.507V0.527996H441.995ZM491.375 57.552C491.375 63.184 488.623 66 483.119 66H459.887V51.504H466.415V59.472H483.695V51.504L467.951 41.616C466.351 40.592 464.975 39.76 463.823 39.12C462.671 38.48 461.711 37.84 460.943 37.2C459.535 35.92 458.831 34.192 458.831 32.016V26.544C458.831 23.856 459.279 22 460.175 20.976C461.903 18.992 464.463 18 467.855 18H490.223V32.4H483.695V24.528H466.415V32.592L482.735 42.768C484.079 43.6 485.263 44.336 486.287 44.976C487.375 45.552 488.271 46.16 488.975 46.8C490.575 48.144 491.375 49.744 491.375 51.6V57.552Z" fill="#AAAAAA"/>
</svg>
