<svg width="134" height="72" viewBox="0 0 134 72" fill="none" xmlns="http://www.w3.org/2000/svg">
<path d="M49.04 0.599993C56.32 0.599993 59.96 4.19333 59.96 11.38V62.48H68.92V72H41.9V62.48H48.62V10.4L20.76 27.9V62.48H27.62V72H0.6V62.48H9.42V11.38H0.6V2H20.76V16.56L44 2C45.4933 1.06666 47.1733 0.599993 49.04 0.599993ZM122.59 2C129.87 2 133.51 5.59333 133.51 12.78V25.24H122.17V11.66L100.33 25.52V62.48H107.19V72H80.1703V62.48H88.9903V11.38H80.1703V1.85999H100.33V14.18L117.55 3.4C119.044 2.46667 120.724 2 122.59 2Z" fill="black"/>
</svg>
