<svg width="92" height="49" viewBox="0 0 92 49" fill="none" xmlns="http://www.w3.org/2000/svg">
<path d="M34.056 0.0399952C39.048 0.0399952 41.544 2.504 41.544 7.432V42.472H47.688V49H29.16V42.472H33.768V6.76L14.664 18.76V42.472H19.368V49H0.84V42.472H6.888V7.432H0.84V1H14.664V10.984L30.6 1C31.624 0.359997 32.776 0.0399952 34.056 0.0399952ZM84.4905 1C89.4825 1 91.9785 3.464 91.9785 8.392V16.936H84.2025V7.624L69.2265 17.128V42.472H73.9305V49H55.4025V42.472H61.4505V7.432H55.4025V0.903996H69.2265V9.352L81.0345 1.96C82.0585 1.32 83.2105 1 84.4905 1Z" fill="#AAAAAA"/>
</svg>
