<svg width="902" height="586" viewBox="0 0 902 586" fill="none" xmlns="http://www.w3.org/2000/svg">
<g filter="url(#filter0_d_11_1635)">
<rect x="117.564" y="91.3135" width="720" height="400" rx="16" transform="rotate(-1 117.564 91.3135)" fill="#F9F9F9"/>
<rect x="118.073" y="91.8047" width="719" height="399" rx="15.5" transform="rotate(-1 118.073 91.8047)" stroke="#7158D0" stroke-opacity="0.3"/>
<rect x="573.914" y="107.352" width="240" height="120" rx="12" transform="rotate(-1 573.914 107.352)" fill="#F9F9F9"/>
<rect x="574.423" y="107.843" width="239" height="119" rx="11.5" transform="rotate(-1 574.423 107.843)" stroke="#7158D0" stroke-opacity="0.1"/>
<rect x="590.191" y="123.07" width="12" height="12" rx="6" transform="rotate(-1 590.191 123.07)" fill="#E3DDFC"/>
<rect x="610.188" y="122.721" width="48" height="12" rx="2" transform="rotate(-1 610.188 122.721)" fill="#7158D0"/>
<rect x="591.168" y="179.061" width="100" height="12" rx="2" transform="rotate(-1 591.168 179.061)" fill="#E3DDFC"/>
<rect x="591.517" y="199.058" width="64" height="12" rx="2" transform="rotate(-1 591.517 199.058)" fill="#7158D0"/>
<circle cx="766.932" cy="163.992" r="28" transform="rotate(-1 766.932 163.992)" stroke="#7158D0" stroke-width="8"/>
<path d="M794.928 163.503C795.008 168.107 793.952 172.659 791.852 176.758C789.753 180.856 786.675 184.373 782.892 186.998C779.108 189.622 774.736 191.273 770.162 191.805C765.588 192.336 760.954 191.731 756.67 190.043C752.386 188.356 748.584 185.637 745.601 182.13C742.618 178.622 740.546 174.432 739.569 169.932C738.592 165.433 738.74 160.761 740 156.332C741.259 151.903 743.592 147.853 746.79 144.541" stroke="#E3DDFC" stroke-width="8"/>
<path d="M776.197 190.414C771.33 192.121 766.087 192.45 761.045 191.366C756.003 190.281 751.358 187.826 747.623 184.269" stroke="#7158D0" stroke-width="8"/>
<rect x="473.104" y="119.113" width="24" height="24" rx="12" transform="rotate(-1 473.104 119.113)" fill="#E3DDFC"/>
<rect x="505.099" y="118.554" width="24" height="24" rx="2" transform="rotate(-1 505.099 118.554)" fill="#E3DDFC"/>
<rect x="143.638" y="209.877" width="40" height="40" rx="20" transform="rotate(-1 143.638 209.877)" fill="#E3DDFC"/>
<rect x="191.892" y="224.036" width="72" height="10" rx="2" transform="rotate(-1 191.892 224.036)" fill="#7158D0"/>
<rect x="144.615" y="265.868" width="40" height="40" rx="20" transform="rotate(-1 144.615 265.868)" fill="#E3DDFC"/>
<rect x="192.869" y="280.028" width="120" height="10" rx="2" transform="rotate(-1 192.869 280.028)" fill="#7158D0"/>
<rect x="145.592" y="321.859" width="40" height="40" rx="20" transform="rotate(-1 145.592 321.859)" fill="#E3DDFC"/>
<rect x="193.847" y="336.019" width="87" height="10" rx="2" transform="rotate(-1 193.847 336.019)" fill="#7158D0"/>
<rect x="146.57" y="377.851" width="40" height="40" rx="20" transform="rotate(-1 146.57 377.851)" fill="#E3DDFC"/>
<rect x="194.824" y="392.011" width="101" height="10" rx="2" transform="rotate(-1 194.824 392.011)" fill="#7158D0"/>
<rect x="142.488" y="115.382" width="261" height="46" rx="11.5" transform="rotate(-1 142.488 115.382)" stroke="#7158D0" stroke-opacity="0.1"/>
<rect x="241.279" y="131.16" width="146" height="12" rx="2" transform="rotate(-1 241.279 131.16)" fill="#7158D0"/>
<path d="M427.936 109.9L434.079 461.846" stroke="#7158D0" stroke-opacity="0.1"/>
<path d="M143.219 185.88L413.178 181.168" stroke="#7158D0" stroke-opacity="0.1"/>
<path d="M446.373 249.554L816.317 243.096" stroke="#7158D0" stroke-opacity="0.1"/>
<rect x="536.712" y="267.98" width="20" height="20" rx="4" transform="rotate(-1 536.712 267.98)" fill="#E3DDFC"/>
<rect x="568.707" y="267.421" width="71" height="20" rx="4" transform="rotate(-1 568.707 267.421)" fill="#7158D0"/>
<circle cx="757.852" cy="274.121" r="5" transform="rotate(-1 757.852 274.121)" fill="#E3DDFC"/>
<circle cx="784.848" cy="273.65" r="5" transform="rotate(-1 784.848 273.65)" fill="#7158D0"/>
<circle cx="811.844" cy="273.179" r="5" transform="rotate(-1 811.844 273.179)" fill="#E3DDFC"/>
<rect x="537.689" y="323.971" width="24" height="122" rx="4" transform="rotate(-1 537.689 323.971)" fill="#7158D0"/>
<rect x="570.976" y="397.402" width="24" height="48" rx="4" transform="rotate(-1 570.976 397.402)" fill="#E3DDFC"/>
<rect x="543.957" y="453.882" width="48" height="6" rx="3" transform="rotate(-1 543.957 453.882)" fill="#E3DDFC"/>
<rect x="650.405" y="364.01" width="24" height="80" rx="4" transform="rotate(-1 650.405 364.01)" fill="#E3DDFC"/>
<rect x="682.051" y="343.455" width="24" height="100" rx="4" transform="rotate(-1 682.051 343.455)" fill="#7158D0"/>
<rect x="655.94" y="451.927" width="48" height="6" rx="3" transform="rotate(-1 655.94 451.927)" fill="#E3DDFC"/>
<rect x="763.365" y="418.047" width="24" height="24" rx="4" transform="rotate(-1 763.365 418.047)" fill="#7158D0"/>
<rect x="794.139" y="347.499" width="24" height="94" rx="4" transform="rotate(-1 794.139 347.499)" fill="#E3DDFC"/>
<rect x="767.923" y="449.972" width="48" height="6" rx="3" transform="rotate(-1 767.923 449.972)" fill="#E3DDFC"/>
</g>
<defs>
<filter id="filter0_d_11_1635" x="0.564453" y="-0.252258" width="900.871" height="586.505" filterUnits="userSpaceOnUse" color-interpolation-filters="sRGB">
<feFlood flood-opacity="0" result="BackgroundImageFix"/>
<feColorMatrix in="SourceAlpha" type="matrix" values="0 0 0 0 0 0 0 0 0 0 0 0 0 0 0 0 0 0 127 0" result="hardAlpha"/>
<feOffset dx="-30" dy="8"/>
<feGaussianBlur stdDeviation="43.5"/>
<feComposite in2="hardAlpha" operator="out"/>
<feColorMatrix type="matrix" values="0 0 0 0 0.443137 0 0 0 0 0.345098 0 0 0 0 0.815686 0 0 0 0.1 0"/>
<feBlend mode="normal" in2="BackgroundImageFix" result="effect1_dropShadow_11_1635"/>
<feBlend mode="normal" in="SourceGraphic" in2="effect1_dropShadow_11_1635" result="shape"/>
</filter>
</defs>
</svg>
