<svg width="1440" height="899" viewBox="0 0 1440 899" fill="none" xmlns="http://www.w3.org/2000/svg">
<rect width="1440" height="650" fill="#7158D0"/>
<circle cx="1106.52" cy="123.571" r="3" transform="rotate(-8 1106.52 123.571)" fill="#F9F9F9" fill-opacity="0.24"/>
<circle cx="1114.04" cy="177.045" r="3" transform="rotate(-8 1114.04 177.045)" fill="#F9F9F9" fill-opacity="0.24"/>
<circle cx="1121.55" cy="230.52" r="3" transform="rotate(-8 1121.55 230.52)" fill="#F9F9F9" fill-opacity="0.24"/>
<circle cx="1129.07" cy="283.994" r="3" transform="rotate(-8 1129.07 283.994)" fill="#F9F9F9" fill-opacity="0.24"/>
<circle cx="1136.59" cy="337.469" r="3" transform="rotate(-8 1136.59 337.469)" fill="#F9F9F9" fill-opacity="0.24"/>
<circle cx="1144.1" cy="390.943" r="3" transform="rotate(-8 1144.1 390.943)" fill="#F9F9F9" fill-opacity="0.24"/>
<circle cx="1151.62" cy="444.418" r="3" transform="rotate(-8 1151.62 444.418)" fill="#F9F9F9" fill-opacity="0.24"/>
<circle cx="1159.13" cy="497.892" r="3" transform="rotate(-8 1159.13 497.892)" fill="#F9F9F9" fill-opacity="0.24"/>
<circle cx="1166.65" cy="551.367" r="3" transform="rotate(-8 1166.65 551.367)" fill="#F9F9F9" fill-opacity="0.24"/>
<circle cx="1174.16" cy="604.841" r="3" transform="rotate(-8 1174.16 604.841)" fill="#F9F9F9" fill-opacity="0.24"/>
<circle cx="1140.8" cy="36.9571" r="3" transform="rotate(-8 1140.8 36.9571)" fill="#F9F9F9" fill-opacity="0.24"/>
<circle cx="1148.32" cy="90.4316" r="3" transform="rotate(-8 1148.32 90.4316)" fill="#F9F9F9" fill-opacity="0.24"/>
<circle cx="1155.83" cy="143.906" r="3" transform="rotate(-8 1155.83 143.906)" fill="#F9F9F9" fill-opacity="0.24"/>
<circle cx="1163.35" cy="197.381" r="3" transform="rotate(-8 1163.35 197.381)" fill="#F9F9F9" fill-opacity="0.24"/>
<circle cx="1170.86" cy="250.855" r="3" transform="rotate(-8 1170.86 250.855)" fill="#F9F9F9" fill-opacity="0.24"/>
<circle cx="1178.38" cy="304.329" r="3" transform="rotate(-8 1178.38 304.329)" fill="#F9F9F9" fill-opacity="0.24"/>
<circle cx="1185.9" cy="357.804" r="3" transform="rotate(-8 1185.9 357.804)" fill="#F9F9F9" fill-opacity="0.24"/>
<circle cx="1193.41" cy="411.278" r="3" transform="rotate(-8 1193.41 411.278)" fill="#F9F9F9" fill-opacity="0.24"/>
<circle cx="1200.93" cy="464.753" r="3" transform="rotate(-8 1200.93 464.753)" fill="#F9F9F9" fill-opacity="0.24"/>
<circle cx="1208.44" cy="518.227" r="3" transform="rotate(-8 1208.44 518.227)" fill="#F9F9F9" fill-opacity="0.24"/>
<circle cx="1215.96" cy="571.702" r="3" transform="rotate(-8 1215.96 571.702)" fill="#F9F9F9" fill-opacity="0.24"/>
<circle cx="1223.47" cy="625.176" r="3" transform="rotate(-8 1223.47 625.176)" fill="#F9F9F9" fill-opacity="0.24"/>
<circle cx="1230.99" cy="678.651" r="3" transform="rotate(-8 1230.99 678.651)" fill="#F9F9F9" fill-opacity="0.24"/>
<circle cx="1238.5" cy="732.125" r="3" transform="rotate(-8 1238.5 732.125)" fill="#F9F9F9" fill-opacity="0.24"/>
<circle cx="1197.63" cy="110.767" r="3" transform="rotate(-8 1197.63 110.767)" fill="#F9F9F9" fill-opacity="0.24"/>
<circle cx="1205.14" cy="164.241" r="3" transform="rotate(-8 1205.14 164.241)" fill="#F9F9F9" fill-opacity="0.24"/>
<circle cx="1212.66" cy="217.716" r="3" transform="rotate(-8 1212.66 217.716)" fill="#F9F9F9" fill-opacity="0.24"/>
<circle cx="1220.17" cy="271.19" r="3" transform="rotate(-8 1220.17 271.19)" fill="#F9F9F9" fill-opacity="0.24"/>
<circle cx="1227.69" cy="324.665" r="3" transform="rotate(-8 1227.69 324.665)" fill="#F9F9F9" fill-opacity="0.24"/>
<circle cx="1235.21" cy="378.139" r="3" transform="rotate(-8 1235.21 378.139)" fill="#F9F9F9" fill-opacity="0.24"/>
<circle cx="1242.72" cy="431.614" r="3" transform="rotate(-8 1242.72 431.614)" fill="#F9F9F9" fill-opacity="0.24"/>
<circle cx="1250.24" cy="485.088" r="3" transform="rotate(-8 1250.24 485.088)" fill="#F9F9F9" fill-opacity="0.24"/>
<circle cx="1257.75" cy="538.563" r="3" transform="rotate(-8 1257.75 538.563)" fill="#F9F9F9" fill-opacity="0.24"/>
<circle cx="1265.27" cy="592.037" r="3" transform="rotate(-8 1265.27 592.037)" fill="#F9F9F9" fill-opacity="0.24"/>
<circle cx="1231.91" cy="24.1532" r="3" transform="rotate(-8 1231.91 24.1532)" fill="#F9F9F9" fill-opacity="0.24"/>
<circle cx="1239.42" cy="77.6277" r="3" transform="rotate(-8 1239.42 77.6277)" fill="#F9F9F9" fill-opacity="0.24"/>
<circle cx="1246.94" cy="131.102" r="3" transform="rotate(-8 1246.94 131.102)" fill="#F9F9F9" fill-opacity="0.24"/>
<circle cx="1254.45" cy="184.577" r="3" transform="rotate(-8 1254.45 184.577)" fill="#F9F9F9" fill-opacity="0.24"/>
<circle cx="1261.97" cy="238.051" r="3" transform="rotate(-8 1261.97 238.051)" fill="#F9F9F9" fill-opacity="0.24"/>
<circle cx="1269.48" cy="291.526" r="3" transform="rotate(-8 1269.48 291.526)" fill="#F9F9F9" fill-opacity="0.24"/>
<circle cx="1277" cy="345" r="3" transform="rotate(-8 1277 345)" fill="#F9F9F9" fill-opacity="0.24"/>
<circle cx="1284.52" cy="398.475" r="3" transform="rotate(-8 1284.52 398.475)" fill="#F9F9F9" fill-opacity="0.24"/>
<circle cx="1292.03" cy="451.949" r="3" transform="rotate(-8 1292.03 451.949)" fill="#F9F9F9" fill-opacity="0.24"/>
<circle cx="1299.55" cy="505.423" r="3" transform="rotate(-8 1299.55 505.423)" fill="#F9F9F9" fill-opacity="0.24"/>
<circle cx="1307.06" cy="558.898" r="3" transform="rotate(-8 1307.06 558.898)" fill="#F9F9F9" fill-opacity="0.24"/>
<circle cx="1314.58" cy="612.372" r="3" transform="rotate(-8 1314.58 612.372)" fill="#F9F9F9" fill-opacity="0.24"/>
<circle cx="1322.09" cy="665.847" r="3" transform="rotate(-8 1322.09 665.847)" fill="#F9F9F9" fill-opacity="0.24"/>
<circle cx="1329.61" cy="719.321" r="3" transform="rotate(-8 1329.61 719.321)" fill="#F9F9F9" fill-opacity="0.24"/>
<circle cx="1288.73" cy="97.9629" r="3" transform="rotate(-8 1288.73 97.9629)" fill="#F9F9F9" fill-opacity="0.24"/>
<circle cx="1296.25" cy="151.437" r="3" transform="rotate(-8 1296.25 151.437)" fill="#F9F9F9" fill-opacity="0.24"/>
<circle cx="1303.76" cy="204.912" r="3" transform="rotate(-8 1303.76 204.912)" fill="#F9F9F9" fill-opacity="0.24"/>
<circle cx="1311.28" cy="258.386" r="3" transform="rotate(-8 1311.28 258.386)" fill="#F9F9F9" fill-opacity="0.24"/>
<circle cx="1318.79" cy="311.861" r="3" transform="rotate(-8 1318.79 311.861)" fill="#F9F9F9" fill-opacity="0.24"/>
<circle cx="1326.31" cy="365.335" r="3" transform="rotate(-8 1326.31 365.335)" fill="#F9F9F9" fill-opacity="0.24"/>
<circle cx="1333.83" cy="418.81" r="3" transform="rotate(-8 1333.83 418.81)" fill="#F9F9F9" fill-opacity="0.24"/>
<circle cx="1341.34" cy="472.284" r="3" transform="rotate(-8 1341.34 472.284)" fill="#F9F9F9" fill-opacity="0.24"/>
<circle cx="1348.86" cy="525.759" r="3" transform="rotate(-8 1348.86 525.759)" fill="#F9F9F9" fill-opacity="0.24"/>
<circle cx="1356.37" cy="579.233" r="3" transform="rotate(-8 1356.37 579.233)" fill="#F9F9F9" fill-opacity="0.24"/>
<circle cx="1323.01" cy="11.3492" r="3" transform="rotate(-8 1323.01 11.3492)" fill="#F9F9F9" fill-opacity="0.24"/>
<circle cx="1330.53" cy="64.8237" r="3" transform="rotate(-8 1330.53 64.8237)" fill="#F9F9F9" fill-opacity="0.24"/>
<circle cx="1338.04" cy="118.298" r="3" transform="rotate(-8 1338.04 118.298)" fill="#F9F9F9" fill-opacity="0.24"/>
<circle cx="1345.56" cy="171.773" r="3" transform="rotate(-8 1345.56 171.773)" fill="#F9F9F9" fill-opacity="0.24"/>
<circle cx="1353.07" cy="225.247" r="3" transform="rotate(-8 1353.07 225.247)" fill="#F9F9F9" fill-opacity="0.24"/>
<circle cx="1360.59" cy="278.722" r="3" transform="rotate(-8 1360.59 278.722)" fill="#F9F9F9" fill-opacity="0.24"/>
<circle cx="1368.1" cy="332.196" r="3" transform="rotate(-8 1368.1 332.196)" fill="#F9F9F9" fill-opacity="0.24"/>
<circle cx="1375.62" cy="385.671" r="3" transform="rotate(-8 1375.62 385.671)" fill="#F9F9F9" fill-opacity="0.24"/>
<circle cx="1383.14" cy="439.145" r="3" transform="rotate(-8 1383.14 439.145)" fill="#F9F9F9" fill-opacity="0.24"/>
<circle cx="1390.65" cy="492.62" r="3" transform="rotate(-8 1390.65 492.62)" fill="#F9F9F9" fill-opacity="0.24"/>
<circle cx="1398.17" cy="546.094" r="3" transform="rotate(-8 1398.17 546.094)" fill="#F9F9F9" fill-opacity="0.24"/>
<circle cx="1405.68" cy="599.569" r="3" transform="rotate(-8 1405.68 599.569)" fill="#F9F9F9" fill-opacity="0.24"/>
<circle cx="1413.2" cy="653.043" r="3" transform="rotate(-8 1413.2 653.043)" fill="#F9F9F9" fill-opacity="0.24"/>
<circle cx="1420.71" cy="706.517" r="3" transform="rotate(-8 1420.71 706.517)" fill="#F9F9F9" fill-opacity="0.24"/>
<circle cx="1379.84" cy="85.159" r="3" transform="rotate(-8 1379.84 85.159)" fill="#F9F9F9" fill-opacity="0.24"/>
<circle cx="1387.35" cy="138.633" r="3" transform="rotate(-8 1387.35 138.633)" fill="#F9F9F9" fill-opacity="0.24"/>
<circle cx="1394.87" cy="192.108" r="3" transform="rotate(-8 1394.87 192.108)" fill="#F9F9F9" fill-opacity="0.24"/>
<circle cx="1402.38" cy="245.582" r="3" transform="rotate(-8 1402.38 245.582)" fill="#F9F9F9" fill-opacity="0.24"/>
<circle cx="1409.9" cy="299.057" r="3" transform="rotate(-8 1409.9 299.057)" fill="#F9F9F9" fill-opacity="0.24"/>
<circle cx="1417.41" cy="352.531" r="3" transform="rotate(-8 1417.41 352.531)" fill="#F9F9F9" fill-opacity="0.24"/>
<circle cx="1424.93" cy="406.006" r="3" transform="rotate(-8 1424.93 406.006)" fill="#F9F9F9" fill-opacity="0.24"/>
<circle cx="1432.45" cy="459.48" r="3" transform="rotate(-8 1432.45 459.48)" fill="#F9F9F9" fill-opacity="0.24"/>
<circle cx="1439.96" cy="512.955" r="3" transform="rotate(-8 1439.96 512.955)" fill="#F9F9F9" fill-opacity="0.24"/>
<circle cx="22.0694" cy="651.505" r="3" transform="rotate(-35 22.0694 651.505)" fill="#F9F9F9" fill-opacity="0.24"/>
<circle cx="53.0425" cy="695.739" r="3" transform="rotate(-35 53.0425 695.739)" fill="#F9F9F9" fill-opacity="0.24"/>
<circle cx="84.0156" cy="739.973" r="3" transform="rotate(-35 84.0156 739.973)" fill="#F9F9F9" fill-opacity="0.24"/>
<circle cx="114.989" cy="784.208" r="3" transform="rotate(-35 114.989 784.208)" fill="#F9F9F9" fill-opacity="0.24"/>
<circle cx="13.2907" cy="558.769" r="3" transform="rotate(-35 13.2907 558.769)" fill="#F9F9F9" fill-opacity="0.24"/>
<circle cx="44.2638" cy="603.003" r="3" transform="rotate(-35 44.2638 603.003)" fill="#F9F9F9" fill-opacity="0.24"/>
<circle cx="75.2369" cy="647.237" r="3" transform="rotate(-35 75.2369 647.237)" fill="#F9F9F9" fill-opacity="0.24"/>
<circle cx="106.21" cy="691.472" r="3" transform="rotate(-35 106.21 691.472)" fill="#F9F9F9" fill-opacity="0.24"/>
<circle cx="137.183" cy="735.706" r="3" transform="rotate(-35 137.183 735.706)" fill="#F9F9F9" fill-opacity="0.24"/>
<circle cx="168.156" cy="779.94" r="3" transform="rotate(-35 168.156 779.94)" fill="#F9F9F9" fill-opacity="0.24"/>
<circle cx="199.129" cy="824.174" r="3" transform="rotate(-35 199.129 824.174)" fill="#F9F9F9" fill-opacity="0.24"/>
<circle cx="230.103" cy="868.409" r="3" transform="rotate(-35 230.103 868.409)" fill="#F9F9F9" fill-opacity="0.24"/>
<circle cx="4.51199" cy="466.033" r="3" transform="rotate(-35 4.51199 466.033)" fill="#F9F9F9" fill-opacity="0.24"/>
<circle cx="35.4851" cy="510.267" r="3" transform="rotate(-35 35.4851 510.267)" fill="#F9F9F9" fill-opacity="0.24"/>
<circle cx="66.4582" cy="554.502" r="3" transform="rotate(-35 66.4582 554.502)" fill="#F9F9F9" fill-opacity="0.24"/>
<circle cx="97.4314" cy="598.736" r="3" transform="rotate(-35 97.4314 598.736)" fill="#F9F9F9" fill-opacity="0.24"/>
<circle cx="128.404" cy="642.97" r="3" transform="rotate(-35 128.404 642.97)" fill="#F9F9F9" fill-opacity="0.24"/>
<circle cx="159.378" cy="687.204" r="3" transform="rotate(-35 159.378 687.204)" fill="#F9F9F9" fill-opacity="0.24"/>
<circle cx="190.351" cy="731.438" r="3" transform="rotate(-35 190.351 731.438)" fill="#F9F9F9" fill-opacity="0.24"/>
<circle cx="26.7064" cy="417.532" r="3" transform="rotate(-35 26.7064 417.532)" fill="#F9F9F9" fill-opacity="0.24"/>
<circle cx="57.6795" cy="461.766" r="3" transform="rotate(-35 57.6795 461.766)" fill="#F9F9F9" fill-opacity="0.24"/>
<circle cx="88.6527" cy="506" r="3" transform="rotate(-35 88.6527 506)" fill="#F9F9F9" fill-opacity="0.24"/>
<circle cx="119.626" cy="550.234" r="3" transform="rotate(-35 119.626 550.234)" fill="#F9F9F9" fill-opacity="0.24"/>
<circle cx="150.599" cy="594.468" r="3" transform="rotate(-35 150.599 594.468)" fill="#F9F9F9" fill-opacity="0.24"/>
<circle cx="181.572" cy="638.703" r="3" transform="rotate(-35 181.572 638.703)" fill="#F9F9F9" fill-opacity="0.24"/>
<circle cx="212.545" cy="682.937" r="3" transform="rotate(-35 212.545 682.937)" fill="#F9F9F9" fill-opacity="0.24"/>
<circle cx="243.518" cy="727.171" r="3" transform="rotate(-35 243.518 727.171)" fill="#F9F9F9" fill-opacity="0.24"/>
<circle cx="274.491" cy="771.405" r="3" transform="rotate(-35 274.491 771.405)" fill="#F9F9F9" fill-opacity="0.24"/>
<circle cx="305.465" cy="815.639" r="3" transform="rotate(-35 305.465 815.639)" fill="#F9F9F9" fill-opacity="0.24"/>
<circle cx="17.9277" cy="324.796" r="3" transform="rotate(-35 17.9277 324.796)" fill="#F9F9F9" fill-opacity="0.24"/>
<circle cx="48.9008" cy="369.03" r="3" transform="rotate(-35 48.9008 369.03)" fill="#F9F9F9" fill-opacity="0.24"/>
<circle cx="79.874" cy="413.264" r="3" transform="rotate(-35 79.874 413.264)" fill="#F9F9F9" fill-opacity="0.24"/>
<circle cx="110.847" cy="457.498" r="3" transform="rotate(-35 110.847 457.498)" fill="#F9F9F9" fill-opacity="0.24"/>
<circle cx="141.82" cy="501.733" r="3" transform="rotate(-35 141.82 501.733)" fill="#F9F9F9" fill-opacity="0.24"/>
<circle cx="172.793" cy="545.967" r="3" transform="rotate(-35 172.793 545.967)" fill="#F9F9F9" fill-opacity="0.24"/>
<circle cx="203.766" cy="590.201" r="3" transform="rotate(-35 203.766 590.201)" fill="#F9F9F9" fill-opacity="0.24"/>
<circle cx="234.74" cy="634.435" r="3" transform="rotate(-35 234.74 634.435)" fill="#F9F9F9" fill-opacity="0.24"/>
<circle cx="265.713" cy="678.669" r="3" transform="rotate(-35 265.713 678.669)" fill="#F9F9F9" fill-opacity="0.24"/>
<circle cx="9.14902" cy="232.06" r="3" transform="rotate(-35 9.14902 232.06)" fill="#F9F9F9" fill-opacity="0.24"/>
<circle cx="40.1221" cy="276.294" r="3" transform="rotate(-35 40.1221 276.294)" fill="#F9F9F9" fill-opacity="0.24"/>
<circle cx="71.0953" cy="320.528" r="3" transform="rotate(-35 71.0953 320.528)" fill="#F9F9F9" fill-opacity="0.24"/>
<circle cx="102.068" cy="364.763" r="3" transform="rotate(-35 102.068 364.763)" fill="#F9F9F9" fill-opacity="0.24"/>
<circle cx="133.042" cy="408.997" r="3" transform="rotate(-35 133.042 408.997)" fill="#F9F9F9" fill-opacity="0.24"/>
<circle cx="164.015" cy="453.231" r="3" transform="rotate(-35 164.015 453.231)" fill="#F9F9F9" fill-opacity="0.24"/>
<circle cx="194.988" cy="497.465" r="3" transform="rotate(-35 194.988 497.465)" fill="#F9F9F9" fill-opacity="0.24"/>
<circle cx="225.961" cy="541.699" r="3" transform="rotate(-35 225.961 541.699)" fill="#F9F9F9" fill-opacity="0.24"/>
<circle cx="256.934" cy="585.934" r="3" transform="rotate(-35 256.934 585.934)" fill="#F9F9F9" fill-opacity="0.24"/>
<circle cx="287.907" cy="630.168" r="3" transform="rotate(-35 287.907 630.168)" fill="#F9F9F9" fill-opacity="0.24"/>
<circle cx="318.88" cy="674.402" r="3" transform="rotate(-35 318.88 674.402)" fill="#F9F9F9" fill-opacity="0.24"/>
<circle cx="349.853" cy="718.636" r="3" transform="rotate(-35 349.853 718.636)" fill="#F9F9F9" fill-opacity="0.24"/>
<circle cx="380.827" cy="762.87" r="3" transform="rotate(-35 380.827 762.87)" fill="#F9F9F9" fill-opacity="0.24"/>
<circle cx="62.3166" cy="227.793" r="3" transform="rotate(-35 62.3166 227.793)" fill="#F9F9F9" fill-opacity="0.24"/>
<circle cx="93.2897" cy="272.027" r="3" transform="rotate(-35 93.2897 272.027)" fill="#F9F9F9" fill-opacity="0.24"/>
<circle cx="124.263" cy="316.261" r="3" transform="rotate(-35 124.263 316.261)" fill="#F9F9F9" fill-opacity="0.24"/>
<circle cx="155.236" cy="360.495" r="3" transform="rotate(-35 155.236 360.495)" fill="#F9F9F9" fill-opacity="0.24"/>
<circle cx="186.209" cy="404.729" r="3" transform="rotate(-35 186.209 404.729)" fill="#F9F9F9" fill-opacity="0.24"/>
<circle cx="217.182" cy="448.964" r="3" transform="rotate(-35 217.182 448.964)" fill="#F9F9F9" fill-opacity="0.24"/>
<circle cx="248.155" cy="493.198" r="3" transform="rotate(-35 248.155 493.198)" fill="#F9F9F9" fill-opacity="0.24"/>
<circle cx="279.128" cy="537.432" r="3" transform="rotate(-35 279.128 537.432)" fill="#F9F9F9" fill-opacity="0.24"/>
<circle cx="310.102" cy="581.666" r="3" transform="rotate(-35 310.102 581.666)" fill="#F9F9F9" fill-opacity="0.24"/>
<circle cx="341.075" cy="625.9" r="3" transform="rotate(-35 341.075 625.9)" fill="#F9F9F9" fill-opacity="0.24"/>
<path d="M304.745 380.436C304.781 378.888 306.957 378.582 307.418 380.06L308.847 384.632L313.635 384.745C315.183 384.781 315.489 386.957 314.011 387.418L309.439 388.847L309.326 393.635C309.29 395.183 307.114 395.489 306.653 394.011L305.224 389.439L300.436 389.326C298.888 389.29 298.582 387.114 300.06 386.653L304.632 385.224L304.745 380.436Z" fill="#F9F9F9" fill-opacity="0.24"/>
<path d="M234.745 154.436C234.781 152.888 236.957 152.582 237.418 154.06L238.847 158.632L243.635 158.745C245.183 158.781 245.489 160.957 244.011 161.418L239.439 162.847L239.326 167.635C239.29 169.183 237.114 169.489 236.653 168.011L235.224 163.439L230.436 163.326C228.888 163.29 228.582 161.114 230.06 160.653L234.632 159.224L234.745 154.436Z" fill="#F9F9F9" fill-opacity="0.24"/>
<path d="M345.745 232.436C345.781 230.888 347.957 230.582 348.418 232.06L349.847 236.631L354.635 236.745C356.183 236.781 356.489 238.956 355.011 239.418L350.439 240.847L350.326 245.635C350.29 247.183 348.114 247.489 347.653 246.011L346.224 241.439L341.436 241.326C339.888 241.29 339.582 239.114 341.06 238.652L345.632 237.224L345.745 232.436Z" fill="#F9F9F9" fill-opacity="0.24"/>
<path d="M1025.74 152.436C1025.78 150.888 1027.96 150.582 1028.42 152.06L1029.85 156.631L1034.64 156.745C1036.18 156.781 1036.49 158.956 1035.01 159.418L1030.44 160.847L1030.33 165.635C1030.29 167.183 1028.11 167.489 1027.65 166.011L1026.22 161.439L1021.44 161.326C1019.89 161.29 1019.58 159.114 1021.06 158.652L1025.63 157.224L1025.74 152.436Z" fill="#F9F9F9" fill-opacity="0.24"/>
<path d="M1051.74 510.436C1051.78 508.888 1053.96 508.582 1054.42 510.06L1055.85 514.631L1060.64 514.745C1062.18 514.781 1062.49 516.956 1061.01 517.418L1056.44 518.847L1056.33 523.635C1056.29 525.183 1054.11 525.489 1053.65 524.011L1052.22 519.439L1047.44 519.326C1045.89 519.29 1045.58 517.114 1047.06 516.652L1051.63 515.224L1051.74 510.436Z" fill="#F9F9F9" fill-opacity="0.24"/>
<path d="M1079.74 322.436C1079.78 320.888 1081.96 320.582 1082.42 322.06L1083.85 326.631L1088.64 326.745C1090.18 326.781 1090.49 328.956 1089.01 329.418L1084.44 330.847L1084.33 335.635C1084.29 337.183 1082.11 337.489 1081.65 336.011L1080.22 331.439L1075.44 331.326C1073.89 331.29 1073.58 329.114 1075.06 328.652L1079.63 327.224L1079.74 322.436Z" fill="#F9F9F9" fill-opacity="0.24"/>
<path d="M363.745 526.436C363.781 524.888 365.957 524.582 366.418 526.06L367.847 530.632L372.635 530.745C374.183 530.781 374.489 532.957 373.011 533.418L368.439 534.847L368.326 539.635C368.29 541.183 366.114 541.489 365.653 540.011L364.224 535.439L359.436 535.326C357.888 535.29 357.582 533.114 359.06 532.653L363.632 531.224L363.745 526.436Z" fill="#F9F9F9" fill-opacity="0.24"/>
<path d="M45.7447 170.436C45.7813 168.888 47.9567 168.582 48.4185 170.06L49.847 174.631L54.6351 174.745C56.183 174.781 56.4888 176.956 55.0109 177.418L50.4394 178.847L50.3263 183.635C50.2897 185.183 48.1144 185.489 47.6526 184.011L46.2241 179.439L41.4359 179.326C39.888 179.29 39.5823 177.114 41.0602 176.652L45.6316 175.224L45.7447 170.436Z" fill="#F9F9F9" fill-opacity="0.24"/>
<path d="M189.745 300.436C189.781 298.888 191.957 298.582 192.418 300.06L193.847 304.632L198.635 304.745C200.183 304.781 200.489 306.957 199.011 307.418L194.439 308.847L194.326 313.635C194.29 315.183 192.114 315.489 191.653 314.011L190.224 309.439L185.436 309.326C183.888 309.29 183.582 307.114 185.06 306.653L189.632 305.224L189.745 300.436Z" fill="#F9F9F9" fill-opacity="0.24"/>
</svg>
